<svg xmlns="http://www.w3.org/2000/svg" xmlns:xlink="http://www.w3.org/1999/xlink" width="1373" height="1207" contentScriptType="application/ecmascript" contentStyleType="text/css" style="width:1373px;height:1207px;background:#fff" preserveAspectRatio="none" version="1.1" viewBox="0 0 1373 1207" zoomAndPan="magnify"><defs><filter id="f56j1wosx79iw" width="300%" height="300%" x="-1" y="-1"><feGaussianBlur result="blurOut" stdDeviation="2"/><feColorMatrix in="blurOut" result="blurOut2" type="matrix" values="0 0 0 0 0 0 0 0 0 0 0 0 0 0 0 0 0 0 .4 0"/><feOffset dx="4" dy="4" in="blurOut2" result="blurOut3"/><feBlend in="SourceGraphic" in2="blurOut3" mode="normal"/></filter></defs><g><text x="339.25" y="29.402" fill="#000" font-family="sans-serif" font-size="18" lengthAdjust="spacing" textLength="690">0xe9807f6980ee0f35081b6a15b25fc8deaeba7d846ae7c5e8870aa4765a6ae8f0</text><text x="575.75" y="1198.949" fill="#000" font-family="sans-serif" font-size="14" lengthAdjust="spacing" textLength="217">Sat, 18 Sep 2021 00:25:22 GMT</text><rect style="stroke:#a80036;stroke-width:1" width="10" height="480.211" x="362.5" y="271.148" fill="#FFF" filter="url(#f56j1wosx79iw)"/><rect style="stroke:#a80036;stroke-width:1" width="10" height="351.658" x="654.5" y="331.08" fill="#809ECB" filter="url(#f56j1wosx79iw)"/><rect style="stroke:#a80036;stroke-width:1" width="10" height="14" x="889.5" y="421.633" fill="#FFF" filter="url(#f56j1wosx79iw)"/><rect style="stroke:#a80036;stroke-width:1" width="10" height="118.553" x="1107.5" y="495.565" fill="#FFF" filter="url(#f56j1wosx79iw)"/><rect style="stroke:#a80036;stroke-width:1" width="10" height="14" x="1292.5" y="555.496" fill="#809ECB" filter="url(#f56j1wosx79iw)"/><line style="stroke:#a80036;stroke-width:1;stroke-dasharray:5,5" x1="80" x2="80" y1="108.664" y2="1116.949"/><line style="stroke:#a80036;stroke-width:1;stroke-dasharray:5,5" x1="367" x2="367" y1="108.664" y2="1116.949"/><line style="stroke:#a80036;stroke-width:1;stroke-dasharray:5,5" x1="659.5" x2="659.5" y1="108.664" y2="1116.949"/><line style="stroke:#a80036;stroke-width:1;stroke-dasharray:5,5" x1="894.5" x2="894.5" y1="108.664" y2="1116.949"/><line style="stroke:#a80036;stroke-width:1;stroke-dasharray:5,5" x1="1112.5" x2="1112.5" y1="108.664" y2="1116.949"/><line style="stroke:#a80036;stroke-width:1;stroke-dasharray:5,5" x1="1297.5" x2="1297.5" y1="108.664" y2="1116.949"/><rect style="stroke:#a80036;stroke-width:1.5" width="111" height="30.488" x="23" y="73.176" fill="#FEFECE" filter="url(#f56j1wosx79iw)"/><text x="30" y="93.711" fill="#000" font-family="sans-serif" font-size="14" lengthAdjust="spacing" textLength="97">0x5e45..3248</text><rect style="stroke:#a80036;stroke-width:1.5" width="111" height="30.488" x="23" y="1115.949" fill="#FEFECE" filter="url(#f56j1wosx79iw)"/><text x="30" y="1136.484" fill="#000" font-family="sans-serif" font-size="14" lengthAdjust="spacing" textLength="97">0x5e45..3248</text><rect style="stroke:#a80036;stroke-width:1.5" width="209" height="63.465" x="261" y="40.199" fill="#FEFECE" filter="url(#f56j1wosx79iw)"/><text x="268" y="60.734" fill="#000" font-family="sans-serif" font-size="14" font-style="italic" lengthAdjust="spacing" textLength="195">«Staked Token BPT (stkBPT)»</text><text x="320.5" y="77.223" fill="#000" font-family="sans-serif" font-size="14" font-style="italic" lengthAdjust="spacing" textLength="90">«AssetProxy»</text><text x="319.5" y="93.711" fill="#000" font-family="sans-serif" font-size="14" lengthAdjust="spacing" textLength="92">0xefbe..b011</text><rect style="stroke:#a80036;stroke-width:1.5" width="209" height="63.465" x="261" y="1115.949" fill="#FEFECE" filter="url(#f56j1wosx79iw)"/><text x="268" y="1136.484" fill="#000" font-family="sans-serif" font-size="14" font-style="italic" lengthAdjust="spacing" textLength="195">«Staked Token BPT (stkBPT)»</text><text x="320.5" y="1152.973" fill="#000" font-family="sans-serif" font-size="14" font-style="italic" lengthAdjust="spacing" textLength="90">«AssetProxy»</text><text x="319.5" y="1169.461" fill="#000" font-family="sans-serif" font-size="14" lengthAdjust="spacing" textLength="92">0xefbe..b011</text><rect style="stroke:#a80036;stroke-width:1.5" width="142" height="46.977" x="586.5" y="56.688" fill="#FEFECE" filter="url(#f56j1wosx79iw)"/><text x="593.5" y="77.223" fill="#000" font-family="sans-serif" font-size="14" font-style="italic" lengthAdjust="spacing" textLength="128">«StakedTokenBPT»</text><text x="609" y="93.711" fill="#000" font-family="sans-serif" font-size="14" lengthAdjust="spacing" textLength="97">0x2408..d87e</text><rect style="stroke:#a80036;stroke-width:1.5" width="142" height="46.977" x="586.5" y="1115.949" fill="#FEFECE" filter="url(#f56j1wosx79iw)"/><text x="593.5" y="1136.484" fill="#000" font-family="sans-serif" font-size="14" font-style="italic" lengthAdjust="spacing" textLength="128">«StakedTokenBPT»</text><text x="609" y="1152.973" fill="#000" font-family="sans-serif" font-size="14" lengthAdjust="spacing" textLength="97">0x2408..d87e</text><rect style="stroke:#a80036;stroke-width:1.5" width="300" height="63.465" x="742.5" y="40.199" fill="#FEFECE" filter="url(#f56j1wosx79iw)"/><text x="749.5" y="60.734" fill="#000" font-family="sans-serif" font-size="14" font-style="italic" lengthAdjust="spacing" textLength="286">«mStable MTA/WETH Staking BPT (mBPT)»</text><text x="809" y="77.223" fill="#000" font-family="sans-serif" font-size="14" font-style="italic" lengthAdjust="spacing" textLength="167">«WeightedPool2Tokens»</text><text x="845" y="93.711" fill="#000" font-family="sans-serif" font-size="14" lengthAdjust="spacing" textLength="95">0xe246..1c49</text><rect style="stroke:#a80036;stroke-width:1.5" width="300" height="63.465" x="742.5" y="1115.949" fill="#FEFECE" filter="url(#f56j1wosx79iw)"/><text x="749.5" y="1136.484" fill="#000" font-family="sans-serif" font-size="14" font-style="italic" lengthAdjust="spacing" textLength="286">«mStable MTA/WETH Staking BPT (mBPT)»</text><text x="809" y="1152.973" fill="#000" font-family="sans-serif" font-size="14" font-style="italic" lengthAdjust="spacing" textLength="167">«WeightedPool2Tokens»</text><text x="845" y="1169.461" fill="#000" font-family="sans-serif" font-size="14" lengthAdjust="spacing" textLength="95">0xe246..1c49</text><rect style="stroke:#a80036;stroke-width:1.5" width="108" height="46.977" x="1056.5" y="56.688" fill="#FEFECE" filter="url(#f56j1wosx79iw)"/><text x="1065.5" y="77.223" fill="#000" font-family="sans-serif" font-size="14" font-style="italic" lengthAdjust="spacing" textLength="90">«AssetProxy»</text><text x="1063.5" y="93.711" fill="#000" font-family="sans-serif" font-size="14" lengthAdjust="spacing" textLength="94">0x861f..5752</text><rect style="stroke:#a80036;stroke-width:1.5" width="108" height="46.977" x="1056.5" y="1115.949" fill="#FEFECE" filter="url(#f56j1wosx79iw)"/><text x="1065.5" y="1136.484" fill="#000" font-family="sans-serif" font-size="14" font-style="italic" lengthAdjust="spacing" textLength="90">«AssetProxy»</text><text x="1063.5" y="1152.973" fill="#000" font-family="sans-serif" font-size="14" lengthAdjust="spacing" textLength="94">0x861f..5752</text><rect style="stroke:#a80036;stroke-width:1.5" width="128" height="46.977" x="1231.5" y="56.688" fill="#FEFECE" filter="url(#f56j1wosx79iw)"/><text x="1238.5" y="77.223" fill="#000" font-family="sans-serif" font-size="14" font-style="italic" lengthAdjust="spacing" textLength="114">«QuestManager»</text><text x="1248.5" y="93.711" fill="#000" font-family="sans-serif" font-size="14" lengthAdjust="spacing" textLength="94">0x39aa..e4ed</text><rect style="stroke:#a80036;stroke-width:1.5" width="128" height="46.977" x="1231.5" y="1115.949" fill="#FEFECE" filter="url(#f56j1wosx79iw)"/><text x="1238.5" y="1136.484" fill="#000" font-family="sans-serif" font-size="14" font-style="italic" lengthAdjust="spacing" textLength="114">«QuestManager»</text><text x="1248.5" y="1152.973" fill="#000" font-family="sans-serif" font-size="14" lengthAdjust="spacing" textLength="94">0x39aa..e4ed</text><rect style="stroke:#a80036;stroke-width:1" width="10" height="480.211" x="362.5" y="271.148" fill="#FFF" filter="url(#f56j1wosx79iw)"/><rect style="stroke:#a80036;stroke-width:1" width="10" height="351.658" x="654.5" y="331.08" fill="#809ECB" filter="url(#f56j1wosx79iw)"/><rect style="stroke:#a80036;stroke-width:1" width="10" height="14" x="889.5" y="421.633" fill="#FFF" filter="url(#f56j1wosx79iw)"/><rect style="stroke:#a80036;stroke-width:1" width="10" height="118.553" x="1107.5" y="495.565" fill="#FFF" filter="url(#f56j1wosx79iw)"/><rect style="stroke:#a80036;stroke-width:1" width="10" height="14" x="1292.5" y="555.496" fill="#809ECB" filter="url(#f56j1wosx79iw)"/><path fill="#FBFB77" d="M5,123.6641 L5,209.6641 L153,209.6641 L153,133.6641 L143,123.6641 L5,123.6641" filter="url(#f56j1wosx79iw)" style="stroke:#a80036;stroke-width:1"/><path fill="#FBFB77" d="M143,123.6641 L143,133.6641 L153,133.6641 L143,123.6641" style="stroke:#a80036;stroke-width:1"/><text x="11" y="141.232" fill="#000" font-family="sans-serif" font-size="13" lengthAdjust="spacing" textLength="72">Nonce: 141</text><text x="11" y="156.543" fill="#000" font-family="sans-serif" font-size="13" lengthAdjust="spacing" textLength="127">Gas Price: 68.0 Gwei</text><text x="11" y="171.853" fill="#000" font-family="sans-serif" font-size="13" lengthAdjust="spacing" textLength="119">Gas Limit: 265,679</text><text x="11" y="187.164" fill="#000" font-family="sans-serif" font-size="13" lengthAdjust="spacing" textLength="118">Gas Used: 233,438</text><text x="11" y="202.475" fill="#000" font-family="sans-serif" font-size="13" lengthAdjust="spacing" textLength="114">Tx Fee: 0.016 ETH</text><polygon fill="#A80036" points="350.5 267.148 360.5 271.148 350.5 275.148 354.5 271.148" style="stroke:#a80036;stroke-width:1"/><line style="stroke:#a80036;stroke-width:1;stroke-dasharray:2,2" x1="80.5" x2="356.5" y1="271.148" y2="271.148"/><text x="87.5" y="235.785" fill="#000" font-family="sans-serif" font-size="13" lengthAdjust="spacing" textLength="38">stake(</text><text x="87.5" y="251.096" fill="#000" font-family="sans-serif" font-size="13" lengthAdjust="spacing" textLength="263">_amount: 383,,185,176,381,674,690,489)</text><text x="87.5" y="266.406" fill="#000" font-family="sans-serif" font-size="13" lengthAdjust="spacing" textLength="78">216,938 gas</text><line style="stroke:#a80036;stroke-width:1" x1="652.5" x2="642.5" y1="331.08" y2="327.08"/><line style="stroke:#a80036;stroke-width:1" x1="652.5" x2="642.5" y1="331.08" y2="335.08"/><line style="stroke:#a80036;stroke-width:1" x1="372.5" x2="653.5" y1="331.08" y2="331.08"/><text x="379.5" y="295.717" fill="#000" font-family="sans-serif" font-size="13" lengthAdjust="spacing" textLength="38">stake(</text><text x="379.5" y="311.027" fill="#000" font-family="sans-serif" font-size="13" lengthAdjust="spacing" textLength="263">_amount: 383,,185,176,381,674,690,489)</text><text x="379.5" y="326.338" fill="#000" font-family="sans-serif" font-size="13" lengthAdjust="spacing" textLength="78">209,622 gas</text><polygon fill="#3471CD" points="877.5 417.633 887.5 421.633 877.5 425.633 881.5 421.633" style="stroke:#3471cd;stroke-width:1"/><line style="stroke:#3471cd;stroke-width:1" x1="372.5" x2="883.5" y1="421.633" y2="421.633"/><text x="379.5" y="355.648" fill="#000" font-family="sans-serif" font-size="13" lengthAdjust="spacing" textLength="85">transferFrom(</text><text x="379.5" y="370.959" fill="#000" font-family="sans-serif" font-size="13" lengthAdjust="spacing" textLength="141">sender: 0x5e45..3248,</text><text x="379.5" y="386.269" fill="#000" font-family="sans-serif" font-size="13" lengthAdjust="spacing" textLength="152">recipient: 0xeFbe..b011,</text><text x="379.5" y="401.58" fill="#000" font-family="sans-serif" font-size="13" lengthAdjust="spacing" textLength="256">amount: 383,,185,176,381,674,690,489)</text><text x="379.5" y="416.891" fill="#000" font-family="sans-serif" font-size="13" lengthAdjust="spacing" textLength="70">15,537 gas</text><polygon fill="#3471CD" points="383.5 431.633 373.5 435.633 383.5 439.633 379.5 435.633" style="stroke:#3471cd;stroke-width:1"/><line style="stroke:#3471cd;stroke-width:1;stroke-dasharray:2,2" x1="377.5" x2="893.5" y1="435.633" y2="435.633"/><polygon fill="#3471CD" points="1095.5 491.565 1105.5 495.565 1095.5 499.565 1099.5 495.565" style="stroke:#3471cd;stroke-width:1"/><line style="stroke:#3471cd;stroke-width:1;stroke-dasharray:2,2" x1="372.5" x2="1101.5" y1="495.565" y2="495.565"/><text x="379.5" y="460.201" fill="#000" font-family="sans-serif" font-size="13" lengthAdjust="spacing" textLength="143">checkForSeasonFinish(</text><text x="379.5" y="475.512" fill="#000" font-family="sans-serif" font-size="13" lengthAdjust="spacing" textLength="156">_account: 0x5e45..3248)</text><text x="379.5" y="490.822" fill="#000" font-family="sans-serif" font-size="13" lengthAdjust="spacing" textLength="70">12,290 gas</text><line style="stroke:#a80036;stroke-width:1" x1="1290.5" x2="1280.5" y1="555.496" y2="551.496"/><line style="stroke:#a80036;stroke-width:1" x1="1290.5" x2="1280.5" y1="555.496" y2="559.496"/><line style="stroke:#a80036;stroke-width:1" x1="1117.5" x2="1291.5" y1="555.496" y2="555.496"/><text x="1124.5" y="520.133" fill="#000" font-family="sans-serif" font-size="13" lengthAdjust="spacing" textLength="143">checkForSeasonFinish(</text><text x="1124.5" y="535.443" fill="#000" font-family="sans-serif" font-size="13" lengthAdjust="spacing" textLength="156">_account: 0x5e45..3248)</text><text x="1124.5" y="550.754" fill="#000" font-family="sans-serif" font-size="13" lengthAdjust="spacing" textLength="62">4,971 gas</text><line style="stroke:#a80036;stroke-width:1" x1="1117.5" x2="1127.5" y1="569.496" y2="565.496"/><line style="stroke:#a80036;stroke-width:1" x1="1117.5" x2="1127.5" y1="569.496" y2="573.496"/><line style="stroke:#a80036;stroke-width:1;stroke-dasharray:2,2" x1="1117.5" x2="1296.5" y1="569.496" y2="569.496"/><polygon fill="#3471CD" points="383.5 610.117 373.5 614.117 383.5 618.117 379.5 614.117" style="stroke:#3471cd;stroke-width:1"/><line style="stroke:#3471cd;stroke-width:1;stroke-dasharray:2,2" x1="377.5" x2="1111.5" y1="614.117" y2="614.117"/><text x="389.5" y="609.375" fill="#000" font-family="sans-serif" font-size="13" lengthAdjust="spacing" textLength="126">newQuestMultiplier:</text><path fill="#FBFB77" d="M1117,627.1172 L1117,667.1172 L1200,667.1172 L1200,637.1172 L1190,627.1172 L1117,627.1172" filter="url(#f56j1wosx79iw)" style="stroke:#a80036;stroke-width:1"/><path fill="#FBFB77" d="M1190,627.1172 L1190,637.1172 L1200,637.1172 L1190,627.1172" style="stroke:#a80036;stroke-width:1"/><text x="1123" y="659.996" fill="#000" font-family="sans-serif" font-size="13" lengthAdjust="spacing" textLength="62">7,319 gas</text><line style="stroke:#a80036;stroke-width:1" x1="372.5" x2="382.5" y1="682.738" y2="678.738"/><line style="stroke:#a80036;stroke-width:1" x1="372.5" x2="382.5" y1="682.738" y2="686.738"/><line style="stroke:#a80036;stroke-width:1;stroke-dasharray:2,2" x1="372.5" x2="658.5" y1="682.738" y2="682.738"/><path fill="#FBFB77" d="M664,695.7383 L664,735.7383 L763,735.7383 L763,705.7383 L753,695.7383 L664,695.7383" filter="url(#f56j1wosx79iw)" style="stroke:#a80036;stroke-width:1"/><path fill="#FBFB77" d="M753,695.7383 L753,705.7383 L763,705.7383 L753,695.7383" style="stroke:#a80036;stroke-width:1"/><text x="670" y="728.617" fill="#000" font-family="sans-serif" font-size="13" lengthAdjust="spacing" textLength="78">181,795 gas</text><polygon fill="#A80036" points="91.5 747.359 81.5 751.359 91.5 755.359 87.5 751.359" style="stroke:#a80036;stroke-width:1"/><line style="stroke:#a80036;stroke-width:1;stroke-dasharray:2,2" x1="85.5" x2="366.5" y1="751.359" y2="751.359"/><path fill="#FBFB77" d="M372,764.3594 L372,804.3594 L455,804.3594 L455,774.3594 L445,764.3594 L372,764.3594" filter="url(#f56j1wosx79iw)" style="stroke:#a80036;stroke-width:1"/><path fill="#FBFB77" d="M445,764.3594 L445,774.3594 L455,774.3594 L445,764.3594" style="stroke:#a80036;stroke-width:1"/><text x="378" y="797.238" fill="#000" font-family="sans-serif" font-size="13" lengthAdjust="spacing" textLength="62">7,316 gas</text><path fill="#0FF" d="M211,818.9805 L211,1011.9805 L520,1011.9805 L520,828.9805 L510,818.9805 L211,818.9805" filter="url(#f56j1wosx79iw)" style="stroke:#a80036;stroke-width:1"/><path fill="#0FF" d="M510,818.9805 L510,828.9805 L520,828.9805 L510,818.9805" style="stroke:#a80036;stroke-width:1"/><text x="217" y="836.549" fill="#000" font-family="sans-serif" font-size="13" lengthAdjust="spacing" textLength="56">Transfer:</text><text x="217" y="851.859" fill="#000" font-family="sans-serif" font-size="13" lengthAdjust="spacing" textLength="130">from: 0x0000..0000,</text><text x="217" y="867.17" fill="#000" font-family="sans-serif" font-size="13" lengthAdjust="spacing" textLength="112">to: 0x5e45..3248,</text><text x="217" y="882.481" fill="#000" font-family="sans-serif" font-size="13" lengthAdjust="spacing" textLength="249">value: 1,630,,452,925,504,025,808,030</text><text x="217" y="897.791" fill="#000" font-family="sans-serif" font-size="13" lengthAdjust="spacing" textLength="149">DelegateVotesChanged:</text><text x="217" y="913.102" fill="#000" font-family="sans-serif" font-size="13" lengthAdjust="spacing" textLength="152">delegate: 0x5e45..3248,</text><text x="217" y="928.412" fill="#000" font-family="sans-serif" font-size="13" lengthAdjust="spacing" textLength="121">previousBalance: 0,</text><text x="217" y="943.723" fill="#000" font-family="sans-serif" font-size="13" lengthAdjust="spacing" textLength="288">newBalance: 1,630,,452,925,504,025,808,030</text><text x="217" y="959.033" fill="#000" font-family="sans-serif" font-size="13" lengthAdjust="spacing" textLength="46">Staked:</text><text x="217" y="974.344" fill="#000" font-family="sans-serif" font-size="13" lengthAdjust="spacing" textLength="126">user: 0x5e45..3248,</text><text x="217" y="989.654" fill="#000" font-family="sans-serif" font-size="13" lengthAdjust="spacing" textLength="256">amount: 383,,185,176,381,674,690,489,</text><text x="217" y="1004.965" fill="#000" font-family="sans-serif" font-size="13" lengthAdjust="spacing" textLength="156">delegatee: 0x0000..0000</text><path fill="#0FF" d="M763,1026.707 L763,1097.707 L1021,1097.707 L1021,1036.707 L1011,1026.707 L763,1026.707" filter="url(#f56j1wosx79iw)" style="stroke:#a80036;stroke-width:1"/><path fill="#0FF" d="M1011,1026.707 L1011,1036.707 L1021,1036.707 L1011,1026.707" style="stroke:#a80036;stroke-width:1"/><text x="769" y="1044.275" fill="#000" font-family="sans-serif" font-size="13" lengthAdjust="spacing" textLength="56">Transfer:</text><text x="769" y="1059.586" fill="#000" font-family="sans-serif" font-size="13" lengthAdjust="spacing" textLength="129">from: 0x5e45..3248,</text><text x="769" y="1074.897" fill="#000" font-family="sans-serif" font-size="13" lengthAdjust="spacing" textLength="110">to: 0xeFbe..b011,</text><text x="769" y="1090.207" fill="#000" font-family="sans-serif" font-size="13" lengthAdjust="spacing" textLength="237">value: 383,,185,176,381,674,690,489</text></g></svg>