<svg xmlns="http://www.w3.org/2000/svg" xmlns:xlink="http://www.w3.org/1999/xlink" width="1208" height="1360" contentScriptType="application/ecmascript" contentStyleType="text/css" style="width:1208px;height:1360px;background:#fff" preserveAspectRatio="none" version="1.1" viewBox="0 0 1208 1360" zoomAndPan="magnify"><defs><filter id="fue6q7lxbkimc" width="300%" height="300%" x="-1" y="-1"><feGaussianBlur result="blurOut" stdDeviation="2"/><feColorMatrix in="blurOut" result="blurOut2" type="matrix" values="0 0 0 0 0 0 0 0 0 0 0 0 0 0 0 0 0 0 .4 0"/><feOffset dx="4" dy="4" in="blurOut2" result="blurOut3"/><feBlend in="SourceGraphic" in2="blurOut3" mode="normal"/></filter></defs><g><text x="255" y="29.402" fill="#000" font-family="sans-serif" font-size="18" lengthAdjust="spacing" textLength="693">0x05082f1f34bc990c41688a8a8cbd5d1beb025d3d5b6ac416a9c0df3c43df0312</text><text x="493" y="1352.055" fill="#000" font-family="sans-serif" font-size="14" lengthAdjust="spacing" textLength="217">Sat, 18 Sep 2021 00:52:47 GMT</text><rect style="stroke:#a80036;stroke-width:1" width="10" height="495.522" x="375" y="286.459" fill="#FFF" filter="url(#fue6q7lxbkimc)"/><rect style="stroke:#a80036;stroke-width:1" width="10" height="351.658" x="679" y="361.701" fill="#809ECB" filter="url(#fue6q7lxbkimc)"/><rect style="stroke:#a80036;stroke-width:1" width="10" height="14" x="820.5" y="452.254" fill="#FFF" filter="url(#fue6q7lxbkimc)"/><rect style="stroke:#a80036;stroke-width:1" width="10" height="118.553" x="942" y="526.186" fill="#FFF" filter="url(#fue6q7lxbkimc)"/><rect style="stroke:#a80036;stroke-width:1" width="10" height="14" x="1127" y="586.117" fill="#809ECB" filter="url(#fue6q7lxbkimc)"/><line style="stroke:#a80036;stroke-width:1;stroke-dasharray:5,5" x1="81" x2="81" y1="108.664" y2="1270.055"/><line style="stroke:#a80036;stroke-width:1;stroke-dasharray:5,5" x1="380" x2="380" y1="108.664" y2="1270.055"/><line style="stroke:#a80036;stroke-width:1;stroke-dasharray:5,5" x1="684" x2="684" y1="108.664" y2="1270.055"/><line style="stroke:#a80036;stroke-width:1;stroke-dasharray:5,5" x1="825" x2="825" y1="108.664" y2="1270.055"/><line style="stroke:#a80036;stroke-width:1;stroke-dasharray:5,5" x1="947" x2="947" y1="108.664" y2="1270.055"/><line style="stroke:#a80036;stroke-width:1;stroke-dasharray:5,5" x1="1132" x2="1132" y1="108.664" y2="1270.055"/><rect style="stroke:#a80036;stroke-width:1.5" width="110" height="30.488" x="24" y="73.176" fill="#FEFECE" filter="url(#fue6q7lxbkimc)"/><text x="31" y="93.711" fill="#000" font-family="sans-serif" font-size="14" lengthAdjust="spacing" textLength="96">0x4c60..1501</text><rect style="stroke:#a80036;stroke-width:1.5" width="110" height="30.488" x="24" y="1269.055" fill="#FEFECE" filter="url(#fue6q7lxbkimc)"/><text x="31" y="1289.59" fill="#000" font-family="sans-serif" font-size="14" lengthAdjust="spacing" textLength="96">0x4c60..1501</text><rect style="stroke:#a80036;stroke-width:1.5" width="174" height="63.465" x="291" y="40.199" fill="#FEFECE" filter="url(#fue6q7lxbkimc)"/><text x="298" y="60.734" fill="#000" font-family="sans-serif" font-size="14" font-style="italic" lengthAdjust="spacing" textLength="160">«Staked MTA (stkMTA)»</text><text x="333" y="77.223" fill="#000" font-family="sans-serif" font-size="14" font-style="italic" lengthAdjust="spacing" textLength="90">«AssetProxy»</text><text x="331.5" y="93.711" fill="#000" font-family="sans-serif" font-size="14" lengthAdjust="spacing" textLength="93">0x8f23..a3d7</text><rect style="stroke:#a80036;stroke-width:1.5" width="174" height="63.465" x="291" y="1269.055" fill="#FEFECE" filter="url(#fue6q7lxbkimc)"/><text x="298" y="1289.59" fill="#000" font-family="sans-serif" font-size="14" font-style="italic" lengthAdjust="spacing" textLength="160">«Staked MTA (stkMTA)»</text><text x="333" y="1306.078" fill="#000" font-family="sans-serif" font-size="14" font-style="italic" lengthAdjust="spacing" textLength="90">«AssetProxy»</text><text x="331.5" y="1322.566" fill="#000" font-family="sans-serif" font-size="14" lengthAdjust="spacing" textLength="93">0x8f23..a3d7</text><rect style="stroke:#a80036;stroke-width:1.5" width="148" height="46.977" x="608" y="56.688" fill="#FEFECE" filter="url(#fue6q7lxbkimc)"/><text x="615" y="77.223" fill="#000" font-family="sans-serif" font-size="14" font-style="italic" lengthAdjust="spacing" textLength="134">«StakedTokenMTA»</text><text x="635" y="93.711" fill="#000" font-family="sans-serif" font-size="14" lengthAdjust="spacing" textLength="94">0xce1d..7a96</text><rect style="stroke:#a80036;stroke-width:1.5" width="148" height="46.977" x="608" y="1269.055" fill="#FEFECE" filter="url(#fue6q7lxbkimc)"/><text x="615" y="1289.59" fill="#000" font-family="sans-serif" font-size="14" font-style="italic" lengthAdjust="spacing" textLength="134">«StakedTokenMTA»</text><text x="635" y="1306.078" fill="#000" font-family="sans-serif" font-size="14" lengthAdjust="spacing" textLength="94">0xce1d..7a96</text><rect style="stroke:#a80036;stroke-width:1.5" width="107" height="63.465" x="770" y="40.199" fill="#FEFECE" filter="url(#fue6q7lxbkimc)"/><text x="777.5" y="60.734" fill="#000" font-family="sans-serif" font-size="14" font-style="italic" lengthAdjust="spacing" textLength="92">«Meta (MTA)»</text><text x="778.5" y="77.223" fill="#000" font-family="sans-serif" font-size="14" font-style="italic" lengthAdjust="spacing" textLength="90">«MetaToken»</text><text x="777" y="93.711" fill="#000" font-family="sans-serif" font-size="14" lengthAdjust="spacing" textLength="93">0xa3be..acd2</text><rect style="stroke:#a80036;stroke-width:1.5" width="107" height="63.465" x="770" y="1269.055" fill="#FEFECE" filter="url(#fue6q7lxbkimc)"/><text x="777.5" y="1289.59" fill="#000" font-family="sans-serif" font-size="14" font-style="italic" lengthAdjust="spacing" textLength="92">«Meta (MTA)»</text><text x="778.5" y="1306.078" fill="#000" font-family="sans-serif" font-size="14" font-style="italic" lengthAdjust="spacing" textLength="90">«MetaToken»</text><text x="777" y="1322.566" fill="#000" font-family="sans-serif" font-size="14" lengthAdjust="spacing" textLength="93">0xa3be..acd2</text><rect style="stroke:#a80036;stroke-width:1.5" width="108" height="46.977" x="891" y="56.688" fill="#FEFECE" filter="url(#fue6q7lxbkimc)"/><text x="900" y="77.223" fill="#000" font-family="sans-serif" font-size="14" font-style="italic" lengthAdjust="spacing" textLength="90">«AssetProxy»</text><text x="898" y="93.711" fill="#000" font-family="sans-serif" font-size="14" lengthAdjust="spacing" textLength="94">0x861f..5752</text><rect style="stroke:#a80036;stroke-width:1.5" width="108" height="46.977" x="891" y="1269.055" fill="#FEFECE" filter="url(#fue6q7lxbkimc)"/><text x="900" y="1289.59" fill="#000" font-family="sans-serif" font-size="14" font-style="italic" lengthAdjust="spacing" textLength="90">«AssetProxy»</text><text x="898" y="1306.078" fill="#000" font-family="sans-serif" font-size="14" lengthAdjust="spacing" textLength="94">0x861f..5752</text><rect style="stroke:#a80036;stroke-width:1.5" width="128" height="46.977" x="1066" y="56.688" fill="#FEFECE" filter="url(#fue6q7lxbkimc)"/><text x="1073" y="77.223" fill="#000" font-family="sans-serif" font-size="14" font-style="italic" lengthAdjust="spacing" textLength="114">«QuestManager»</text><text x="1083" y="93.711" fill="#000" font-family="sans-serif" font-size="14" lengthAdjust="spacing" textLength="94">0x39aa..e4ed</text><rect style="stroke:#a80036;stroke-width:1.5" width="128" height="46.977" x="1066" y="1269.055" fill="#FEFECE" filter="url(#fue6q7lxbkimc)"/><text x="1073" y="1289.59" fill="#000" font-family="sans-serif" font-size="14" font-style="italic" lengthAdjust="spacing" textLength="114">«QuestManager»</text><text x="1083" y="1306.078" fill="#000" font-family="sans-serif" font-size="14" lengthAdjust="spacing" textLength="94">0x39aa..e4ed</text><rect style="stroke:#a80036;stroke-width:1" width="10" height="495.522" x="375" y="286.459" fill="#FFF" filter="url(#fue6q7lxbkimc)"/><rect style="stroke:#a80036;stroke-width:1" width="10" height="351.658" x="679" y="361.701" fill="#809ECB" filter="url(#fue6q7lxbkimc)"/><rect style="stroke:#a80036;stroke-width:1" width="10" height="14" x="820.5" y="452.254" fill="#FFF" filter="url(#fue6q7lxbkimc)"/><rect style="stroke:#a80036;stroke-width:1" width="10" height="118.553" x="942" y="526.186" fill="#FFF" filter="url(#fue6q7lxbkimc)"/><rect style="stroke:#a80036;stroke-width:1" width="10" height="14" x="1127" y="586.117" fill="#809ECB" filter="url(#fue6q7lxbkimc)"/><path fill="#FBFB77" d="M5,123.6641 L5,209.6641 L153,209.6641 L153,133.6641 L143,123.6641 L5,123.6641" filter="url(#fue6q7lxbkimc)" style="stroke:#a80036;stroke-width:1"/><path fill="#FBFB77" d="M143,123.6641 L143,133.6641 L153,133.6641 L143,123.6641" style="stroke:#a80036;stroke-width:1"/><text x="11" y="141.232" fill="#000" font-family="sans-serif" font-size="13" lengthAdjust="spacing" textLength="72">Nonce: 423</text><text x="11" y="156.543" fill="#000" font-family="sans-serif" font-size="13" lengthAdjust="spacing" textLength="127">Gas Price: 50.0 Gwei</text><text x="11" y="171.853" fill="#000" font-family="sans-serif" font-size="13" lengthAdjust="spacing" textLength="119">Gas Limit: 270,349</text><text x="11" y="187.164" fill="#000" font-family="sans-serif" font-size="13" lengthAdjust="spacing" textLength="118">Gas Used: 232,823</text><text x="11" y="202.475" fill="#000" font-family="sans-serif" font-size="13" lengthAdjust="spacing" textLength="114">Tx Fee: 0.012 ETH</text><polygon fill="#A80036" points="363 282.459 373 286.459 363 290.459 367 286.459" style="stroke:#a80036;stroke-width:1"/><line style="stroke:#a80036;stroke-width:1;stroke-dasharray:2,2" x1="81" x2="369" y1="286.459" y2="286.459"/><text x="88" y="235.785" fill="#000" font-family="sans-serif" font-size="13" lengthAdjust="spacing" textLength="38">stake(</text><text x="88" y="251.096" fill="#000" font-family="sans-serif" font-size="13" lengthAdjust="spacing" textLength="275">_amount: 8,768,,479,291,323,747,652,183,</text><text x="88" y="266.406" fill="#000" font-family="sans-serif" font-size="13" lengthAdjust="spacing" textLength="166">_delegatee: 0x5e45..3248)</text><text x="88" y="281.717" fill="#000" font-family="sans-serif" font-size="13" lengthAdjust="spacing" textLength="78">220,743 gas</text><line style="stroke:#a80036;stroke-width:1" x1="677" x2="667" y1="361.701" y2="357.701"/><line style="stroke:#a80036;stroke-width:1" x1="677" x2="667" y1="361.701" y2="365.701"/><line style="stroke:#a80036;stroke-width:1" x1="385" x2="678" y1="361.701" y2="361.701"/><text x="392" y="311.027" fill="#000" font-family="sans-serif" font-size="13" lengthAdjust="spacing" textLength="38">stake(</text><text x="392" y="326.338" fill="#000" font-family="sans-serif" font-size="13" lengthAdjust="spacing" textLength="275">_amount: 8,768,,479,291,323,747,652,183,</text><text x="392" y="341.648" fill="#000" font-family="sans-serif" font-size="13" lengthAdjust="spacing" textLength="166">_delegatee: 0x5e45..3248)</text><text x="392" y="356.959" fill="#000" font-family="sans-serif" font-size="13" lengthAdjust="spacing" textLength="78">213,424 gas</text><polygon fill="#3471CD" points="808.5 448.254 818.5 452.254 808.5 456.254 812.5 452.254" style="stroke:#3471cd;stroke-width:1"/><line style="stroke:#3471cd;stroke-width:1" x1="385" x2="814.5" y1="452.254" y2="452.254"/><text x="392" y="386.269" fill="#000" font-family="sans-serif" font-size="13" lengthAdjust="spacing" textLength="85">transferFrom(</text><text x="392" y="401.58" fill="#000" font-family="sans-serif" font-size="13" lengthAdjust="spacing" textLength="141">sender: 0x4c60..1501,</text><text x="392" y="416.891" fill="#000" font-family="sans-serif" font-size="13" lengthAdjust="spacing" textLength="153">recipient: 0x8f23..a3D7,</text><text x="392" y="432.201" fill="#000" font-family="sans-serif" font-size="13" lengthAdjust="spacing" textLength="268">amount: 8,768,,479,291,323,747,652,183)</text><text x="392" y="447.512" fill="#000" font-family="sans-serif" font-size="13" lengthAdjust="spacing" textLength="70">20,434 gas</text><polygon fill="#3471CD" points="396 462.254 386 466.254 396 470.254 392 466.254" style="stroke:#3471cd;stroke-width:1"/><line style="stroke:#3471cd;stroke-width:1;stroke-dasharray:2,2" x1="390" x2="824.5" y1="466.254" y2="466.254"/><polygon fill="#3471CD" points="930 522.186 940 526.186 930 530.186 934 526.186" style="stroke:#3471cd;stroke-width:1"/><line style="stroke:#3471cd;stroke-width:1;stroke-dasharray:2,2" x1="385" x2="936" y1="526.186" y2="526.186"/><text x="392" y="490.822" fill="#000" font-family="sans-serif" font-size="13" lengthAdjust="spacing" textLength="143">checkForSeasonFinish(</text><text x="392" y="506.133" fill="#000" font-family="sans-serif" font-size="13" lengthAdjust="spacing" textLength="156">_account: 0x4c60..1501)</text><text x="392" y="521.443" fill="#000" font-family="sans-serif" font-size="13" lengthAdjust="spacing" textLength="70">12,290 gas</text><line style="stroke:#a80036;stroke-width:1" x1="1125" x2="1115" y1="586.117" y2="582.117"/><line style="stroke:#a80036;stroke-width:1" x1="1125" x2="1115" y1="586.117" y2="590.117"/><line style="stroke:#a80036;stroke-width:1" x1="952" x2="1126" y1="586.117" y2="586.117"/><text x="959" y="550.754" fill="#000" font-family="sans-serif" font-size="13" lengthAdjust="spacing" textLength="143">checkForSeasonFinish(</text><text x="959" y="566.064" fill="#000" font-family="sans-serif" font-size="13" lengthAdjust="spacing" textLength="156">_account: 0x4c60..1501)</text><text x="959" y="581.375" fill="#000" font-family="sans-serif" font-size="13" lengthAdjust="spacing" textLength="62">4,971 gas</text><line style="stroke:#a80036;stroke-width:1" x1="952" x2="962" y1="600.117" y2="596.117"/><line style="stroke:#a80036;stroke-width:1" x1="952" x2="962" y1="600.117" y2="604.117"/><line style="stroke:#a80036;stroke-width:1;stroke-dasharray:2,2" x1="952" x2="1131" y1="600.117" y2="600.117"/><polygon fill="#3471CD" points="396 640.738 386 644.738 396 648.738 392 644.738" style="stroke:#3471cd;stroke-width:1"/><line style="stroke:#3471cd;stroke-width:1;stroke-dasharray:2,2" x1="390" x2="946" y1="644.738" y2="644.738"/><text x="402" y="639.996" fill="#000" font-family="sans-serif" font-size="13" lengthAdjust="spacing" textLength="126">newQuestMultiplier:</text><path fill="#FBFB77" d="M952,657.7383 L952,697.7383 L1035,697.7383 L1035,667.7383 L1025,657.7383 L952,657.7383" filter="url(#fue6q7lxbkimc)" style="stroke:#a80036;stroke-width:1"/><path fill="#FBFB77" d="M1025,657.7383 L1025,667.7383 L1035,667.7383 L1025,657.7383" style="stroke:#a80036;stroke-width:1"/><text x="958" y="690.617" fill="#000" font-family="sans-serif" font-size="13" lengthAdjust="spacing" textLength="62">7,319 gas</text><line style="stroke:#a80036;stroke-width:1" x1="385" x2="395" y1="713.359" y2="709.359"/><line style="stroke:#a80036;stroke-width:1" x1="385" x2="395" y1="713.359" y2="717.359"/><line style="stroke:#a80036;stroke-width:1;stroke-dasharray:2,2" x1="385" x2="683" y1="713.359" y2="713.359"/><path fill="#FBFB77" d="M689,726.3594 L689,766.3594 L788,766.3594 L788,736.3594 L778,726.3594 L689,726.3594" filter="url(#fue6q7lxbkimc)" style="stroke:#a80036;stroke-width:1"/><path fill="#FBFB77" d="M778,726.3594 L778,736.3594 L788,736.3594 L778,726.3594" style="stroke:#a80036;stroke-width:1"/><text x="695" y="759.238" fill="#000" font-family="sans-serif" font-size="13" lengthAdjust="spacing" textLength="78">180,700 gas</text><polygon fill="#A80036" points="92 777.981 82 781.981 92 785.981 88 781.981" style="stroke:#a80036;stroke-width:1"/><line style="stroke:#a80036;stroke-width:1;stroke-dasharray:2,2" x1="86" x2="379" y1="781.981" y2="781.981"/><path fill="#FBFB77" d="M385,794.9805 L385,834.9805 L468,834.9805 L468,804.9805 L458,794.9805 L385,794.9805" filter="url(#fue6q7lxbkimc)" style="stroke:#a80036;stroke-width:1"/><path fill="#FBFB77" d="M458,794.9805 L458,804.9805 L468,804.9805 L458,794.9805" style="stroke:#a80036;stroke-width:1"/><text x="391" y="827.859" fill="#000" font-family="sans-serif" font-size="13" lengthAdjust="spacing" textLength="62">7,319 gas</text><path fill="#0FF" d="M223,849.6016 L223,1103.6016 L532,1103.6016 L532,859.6016 L522,849.6016 L223,849.6016" filter="url(#fue6q7lxbkimc)" style="stroke:#a80036;stroke-width:1"/><path fill="#0FF" d="M522,849.6016 L522,859.6016 L532,859.6016 L522,849.6016" style="stroke:#a80036;stroke-width:1"/><text x="229" y="867.17" fill="#000" font-family="sans-serif" font-size="13" lengthAdjust="spacing" textLength="114">DelegateChanged:</text><text x="229" y="882.481" fill="#000" font-family="sans-serif" font-size="13" lengthAdjust="spacing" textLength="158">delegator: 0x4c60..1501,</text><text x="229" y="897.791" fill="#000" font-family="sans-serif" font-size="13" lengthAdjust="spacing" textLength="184">fromDelegate: 0x4c60..1501,</text><text x="229" y="913.102" fill="#000" font-family="sans-serif" font-size="13" lengthAdjust="spacing" textLength="163">toDelegate: 0x5e45..3248</text><text x="229" y="928.412" fill="#000" font-family="sans-serif" font-size="13" lengthAdjust="spacing" textLength="56">Transfer:</text><text x="229" y="943.723" fill="#000" font-family="sans-serif" font-size="13" lengthAdjust="spacing" textLength="130">from: 0x0000..0000,</text><text x="229" y="959.033" fill="#000" font-family="sans-serif" font-size="13" lengthAdjust="spacing" textLength="112">to: 0x4c60..1501,</text><text x="229" y="974.344" fill="#000" font-family="sans-serif" font-size="13" lengthAdjust="spacing" textLength="249">value: 8,768,,479,291,323,747,652,183</text><text x="229" y="989.654" fill="#000" font-family="sans-serif" font-size="13" lengthAdjust="spacing" textLength="149">DelegateVotesChanged:</text><text x="229" y="1004.965" fill="#000" font-family="sans-serif" font-size="13" lengthAdjust="spacing" textLength="152">delegate: 0x5e45..3248,</text><text x="229" y="1020.275" fill="#000" font-family="sans-serif" font-size="13" lengthAdjust="spacing" textLength="121">previousBalance: 0,</text><text x="229" y="1035.586" fill="#000" font-family="sans-serif" font-size="13" lengthAdjust="spacing" textLength="288">newBalance: 8,768,,479,291,323,747,652,183</text><text x="229" y="1050.897" fill="#000" font-family="sans-serif" font-size="13" lengthAdjust="spacing" textLength="46">Staked:</text><text x="229" y="1066.207" fill="#000" font-family="sans-serif" font-size="13" lengthAdjust="spacing" textLength="126">user: 0x4c60..1501,</text><text x="229" y="1081.518" fill="#000" font-family="sans-serif" font-size="13" lengthAdjust="spacing" textLength="268">amount: 8,768,,479,291,323,747,652,183,</text><text x="229" y="1096.828" fill="#000" font-family="sans-serif" font-size="13" lengthAdjust="spacing" textLength="155">delegatee: 0x5e45..3248</text><path fill="#0FF" d="M688,1118.5703 L688,1250.5703 L958,1250.5703 L958,1128.5703 L948,1118.5703 L688,1118.5703" filter="url(#fue6q7lxbkimc)" style="stroke:#a80036;stroke-width:1"/><path fill="#0FF" d="M948,1118.5703 L948,1128.5703 L958,1128.5703 L948,1118.5703" style="stroke:#a80036;stroke-width:1"/><text x="694" y="1136.139" fill="#000" font-family="sans-serif" font-size="13" lengthAdjust="spacing" textLength="56">Transfer:</text><text x="694" y="1151.449" fill="#000" font-family="sans-serif" font-size="13" lengthAdjust="spacing" textLength="129">from: 0x4c60..1501,</text><text x="694" y="1166.76" fill="#000" font-family="sans-serif" font-size="13" lengthAdjust="spacing" textLength="111">to: 0x8f23..a3D7,</text><text x="694" y="1182.07" fill="#000" font-family="sans-serif" font-size="13" lengthAdjust="spacing" textLength="249">value: 8,768,,479,291,323,747,652,183</text><text x="694" y="1197.381" fill="#000" font-family="sans-serif" font-size="13" lengthAdjust="spacing" textLength="60">Approval:</text><text x="694" y="1212.691" fill="#000" font-family="sans-serif" font-size="13" lengthAdjust="spacing" textLength="137">owner: 0x4c60..1501,</text><text x="694" y="1228.002" fill="#000" font-family="sans-serif" font-size="13" lengthAdjust="spacing" textLength="148">spender: 0x8f23..a3D7,</text><text x="694" y="1243.313" fill="#000" font-family="sans-serif" font-size="13" lengthAdjust="spacing" textLength="49">value: 0</text></g></svg>